inDegrees=no
num_controls=7
num_derivatives=13
num_iterations=128
num_multipliers=7
num_parameters=0
num_slacks=7
num_states=26
objective=0.545381
objective_accelerations=0.042000
objective_balance=0.003900
objective_effort=0.041002
objective_height=0.448847
objective_ligament=0.009633
solver_duration=1604.894007
status=Solve_Succeeded
success=true
DataType=double
version=3
OpenSimVersion=4.5
endheader
time	/jointset/ground_pelvis/pelvis_tilt/value	/jointset/ground_pelvis/pelvis_tx/value	/jointset/ground_pelvis/pelvis_ty/value	/jointset/hip_r/hip_flexion_r/value	/jointset/hip_r/hip_adduction_r/value	/jointset/hip_r/hip_rotation_r/value	/jointset/back/lumbar_extension/value	/jointset/patellofemoral_r/patellar_flexion_r/value	/jointset/knee_r/knee_flexion_r/value	/jointset/knee_r/knee_adduction_r/value	/jointset/knee_r/knee_rotation_r/value	/jointset/ankle_r/ankle_angle_r/value	/jointset/subtalar_r/subtalar_angle_r/value	/jointset/ground_pelvis/pelvis_tilt/speed	/jointset/ground_pelvis/pelvis_tx/speed	/jointset/ground_pelvis/pelvis_ty/speed	/jointset/hip_r/hip_flexion_r/speed	/jointset/hip_r/hip_adduction_r/speed	/jointset/hip_r/hip_rotation_r/speed	/jointset/back/lumbar_extension/speed	/jointset/patellofemoral_r/patellar_flexion_r/speed	/jointset/knee_r/knee_flexion_r/speed	/jointset/knee_r/knee_adduction_r/speed	/jointset/knee_r/knee_rotation_r/speed	/jointset/ankle_r/ankle_angle_r/speed	/jointset/subtalar_r/subtalar_angle_r/speed	/forceset/tau_hip_flexion_r	/forceset/tau_hip_adduction_r	/forceset/tau_hip_rotation_r	/forceset/tau_knee_flexion_r	/forceset/tau_ankle_angle_r	/forceset/tau_subtalar_angle_r	/forceset/tau_lumbar_extension	lambda_cid13_p0	lambda_cid14_p0	lambda_cid14_p1	lambda_cid14_p2	lambda_cid14_p3	lambda_cid14_p4	lambda_cid14_p5	/jointset/ground_pelvis/pelvis_tilt/accel	/jointset/ground_pelvis/pelvis_tx/accel	/jointset/ground_pelvis/pelvis_ty/accel	/jointset/hip_r/hip_flexion_r/accel	/jointset/hip_r/hip_adduction_r/accel	/jointset/hip_r/hip_rotation_r/accel	/jointset/back/lumbar_extension/accel	/jointset/patellofemoral_r/patellar_flexion_r/accel	/jointset/knee_r/knee_flexion_r/accel	/jointset/knee_r/knee_adduction_r/accel	/jointset/knee_r/knee_rotation_r/accel	/jointset/ankle_r/ankle_angle_r/accel	/jointset/subtalar_r/subtalar_angle_r/accel	gamma_cid13_p0	gamma_cid14_p0	gamma_cid14_p1	gamma_cid14_p2	gamma_cid14_p3	gamma_cid14_p4	gamma_cid14_p5
0.5	-0.2245166252600932	-0.006291958891581889	0.8390183360203833	0.9127763880012592	-0.2278250507962232	-0.1321514276288857	-0.3401927022241503	0.696263132234516	0.6962631322345101	0.03591451773923487	0.1745318378088623	0.1761300966818096	0.03519346213720601	-0.6039420655363115	-0.2140257834584079	-0.4093197409539345	1.975553323989308	-0.0004749311016160774	0.2656800078275186	-0.5868928230741717	1.667825712957352	1.667825712957677	-0.2796199687302522	-6.562674135180725e-06	0.3765369090321304	0.09522222999927865	-0.1576330417193996	-0.02399861377025075	0.009396996968605449	-0.3109941512645331	0.1180317763606132	-0.00800713950835634	0.1910660969338036	-31.54350425801641	-4.340200573584284	-0.02597050812495376	-4.346400623049117	-2.25813022713338	-668.4420794266979	60.86395152156547	0.312404138135595	0.5428888967446693	-0.33293806597054	-1.349348838034699	-0.03246523958896318	-0.4910572671895905	1.762253930320153	-1.250887614259951	-1.25088761425993	0.4805445013404339	-0.004239292736513984	-0.3487346911972403	-0.08770752975257878	-1.065400210174489e-07	-1.258321457785447e-07	5.751915841084324e-07	-8.116386140043155e-07	1.784094124200258e-08	-2.143572326517694e-07	3.815797758731677e-07
0.51	-0.2305392404821068	-0.008404866718290223	0.834909444522459	0.9324612353131181	-0.2278321248646973	-0.1295188872296342	-0.3459732631978625	0.7128763292345366	0.7128763292345375	0.03314415693847073	0.1745319973810415	0.1798771688186712	0.03614019410600871	-0.6004952968055716	-0.2085383740448229	-0.4123658270375069	1.96115056895158	-0.0009455682827759721	0.2608565506869224	-0.5691577862114728	1.654579748001207	1.654579748001284	-0.2744009758095158	1.773905890765779e-05	0.3728157560223054	0.09409803985035566	-0.1654246775134034	-0.02255152696317647	0.01004507943394524	-0.3133024095172189	0.1155144991653676	-0.007536967280287424	0.1976315824682323	-30.58504229806623	-5.365236806363997	-0.098053603699837	-4.224336751493415	-1.818020376579085	-672.7366040967106	60.69895687521512	0.3736552558297586	0.5542778625508482	-0.2765724516922247	-1.525588234153822	-0.05524892429430846	-0.473862449277203	1.788366382775506	-1.396522078444014	-1.396522078481292	0.5503277000586545	0.002525686382628105	-0.393084669453812	-0.1286711254541765	-8.257425364957108e-08	-4.298556516416197e-08	7.944235109900959e-07	-2.278654078658933e-07	-6.280958835082966e-08	-1.312052743441721e-07	3.67229238535999e-07
0.52	-0.2365248196137564	-0.01046237827108562	0.8307728664492706	0.9519940851950957	-0.2278440824983675	-0.1269337559041437	-0.3515746262392418	0.7293500523565658	0.7293500523565707	0.030427536269436	0.1745317521265775	0.1835851736127189	0.03707490489972377	-0.5965348474633684	-0.2029465286758207	-0.4148570560067478	1.945153838013372	-0.00145164414052728	0.2561981930750226	-0.5510532366075435	1.639930937358973	1.639930937358801	-0.2688719423840425	-8.752800573148691e-05	0.3687234404693329	0.09281799498175197	-0.1732163133074139	-0.02110444015610241	0.01069316189927935	-0.3156106677699055	0.1129972219701227	-0.007066795052217759	0.2041970680026546	-29.62040900303282	-6.393840805313042	-0.1681460021082576	-4.105577939434194	-1.388344725254659	-677.0939775059643	60.58534616922665	0.4151402604282537	0.5637760878281018	-0.2219666431042266	-1.668144018130688	-0.03955297490724478	-0.4580373614503322	1.836156478566252	-1.531456751477691	-1.531456751477716	0.5425526022878207	-0.03015305227289872	-0.4229671998267666	-0.1188784736887221	-5.024932589839885e-08	7.892113669386784e-08	1.142428158408307e-06	6.18619337099902e-07	-1.869136106524514e-07	-9.272635850260149e-09	3.797955959505745e-07
0.53	-0.242468457805566	-0.01246348369270469	0.8266141510155242	0.9713594682880428	-0.2278606340818055	-0.1243972512483855	-0.3569930908484201	0.7456705420710228	0.7456705420709947	0.02776475865974741	0.1745314724990506	0.1872507267306981	0.03799695053427166	-0.592113116794585	-0.197258553055014	-0.4167904064278995	1.927664850608808	-0.001867640675023505	0.2511319688736924	-0.5325960041625368	1.623943922239247	1.623943922239123	-0.2636317002637306	1.23212504329261e-05	0.3643344493812976	0.09156326947626436	-0.1806225497649431	-0.0199339568501285	0.01127807138444256	-0.3184209154264173	0.1112207923130576	-0.006654855557429764	0.2104435471154364	-28.65023292716765	-7.187419832582577	-0.2241947216316264	-3.986983066050486	-1.127803473717875	-681.4668015765202	60.54023017899166	0.46765062631472	0.5736582682400776	-0.1646646398649848	-1.827951976090015	-0.04368550257001752	-0.5265183401719339	1.857058787317036	-1.665779732087521	-1.665779732080383	0.5227924860039661	0.02735509362071495	-0.4548143473688309	-0.1326151796291959	-2.78915796366477e-08	1.576687114302611e-07	1.352259774839631e-06	1.159583256711219e-06	-2.660372213607322e-07	6.892827667196737e-08	3.980219503552396e-07
0.54	-0.2483654864594461	-0.01440723936430908	0.8224389729979172	0.9905422263320482	-0.2278815581325596	-0.1219105295127794	-0.3622256727011789	0.7618244704663096	0.7618244704662485	0.02515598996508092	0.1745316515998975	0.1908708000809815	0.03890567979563458	-0.5872129398773471	-0.1914765786728824	-0.4181495727788284	1.908628828225416	-0.002326137603486131	0.2462416090444589	-0.513876685323564	1.606618673524821	1.606618673524745	-0.2580701593793745	4.217668981673667e-06	0.3596274869301857	0.09015472034475992	-0.1880287862224804	-0.01876347354415807	0.01186298086960374	-0.3212311630829301	0.1094443626559918	-0.006242916062645986	0.2166900262282113	-27.67541439645965	-7.987314093439188	-0.2812726963843697	-3.868310271915695	-0.8587314674169118	-685.93898897961	60.49460806983546	0.5108295101192099	0.5825758400930657	-0.1071298290596651	-1.977551013896099	-0.04805305370052795	-0.422864487031005	1.888573757359449	-1.799103470417647	-1.799103470417615	0.6068123550966332	-0.05174361979600356	-0.4865614724420562	-0.1496431988920983	-1.656135332063913e-08	1.886657625427155e-07	1.409219101668439e-06	1.362524135504811e-06	-2.953952703061673e-07	9.874515194892639e-08	4.225104290893656e-07
